<svg id="svg8" height="512" viewBox="0 0 16.933333 16.933334" width="512" xmlns="http://www.w3.org/2000/svg" xmlns:svg="http://www.w3.org/2000/svg"><g id="layer1"><path id="path7833" d="m2.1166666.26458333c-.4397374 0-.79375.354013-.79375.79374997v8.9958337c0 .439735.3540126.79375.79375.79375h13.7583334c.439737 0 .79375-.354015.79375-.79375v-8.9958337c0-.43973697-.354013-.79374997-.79375-.79374997z" fill="#549ad4"/><path id="path7863" d="m15.43575.26458333c.813789 10.08217867-13.3190834 10.31874967-13.3190834 10.31874967s-.091499.138655-.1632975.24753c.052767.01097.107181.01705.1632975.01705h13.7583334c.439737 0 .79375-.354015.79375-.79375v-8.9958297c0-.43973697-.354013-.79374997-.79375-.79374997z" fill="#3588cb"/><path id="path7838" d="m3.0107759 1.359411c-.3487573 0-.6295259.2807689-.6295259.6295258v7.1346262c0 .3487561.2807686.6295259.6295259.6295259h11.9701141c.348757 0 .629526-.2807698.629526-.6295259v-7.1346262c0-.3487569-.280769-.6295258-.629526-.6295258z" fill="#e4eff8"/><path id="path7858" d="m14.838887 1.3596069c-.294856 6.3412772-8.3783413 7.7598013-12.3734044 8.0744425.1081471.1899234.3101389.3188435.5451862.3188435h11.9703292c.348756 0 .629418-.2806628.629418-.6294189v-7.1344482c0-.3487568-.280662-.6294189-.629418-.6294189z" fill="#c4dcf0"/><path id="path7816" d="m12.435414 13.758329-1.951836-3.9098462c-.163676-.327869-.07524-.7203496.242111-.9035696.317353-.18323.720347-.0752.903569.24211l.806157 1.3963108.000001-3.9687508c.000001-.29316.236008-.52917.529166-.52917.29316 0 .529168.23601.529168.52917l-.000001 3.4395798-.000001-1.0583267c0-.29316.236008-.52917.529166-.52917.29316 0 .529168.23601.529168.52917l-.000001 1.0583267v-.7937472c0-.2931595.236008-.5291595.529166-.5291595.293159 0 .529168.236.529168.5291595v.7937472l.000002-.5291542c.000001-.29316.236007-.5291695.529165-.5291695.29316 0 .529168.2360095.529168.5291695v2.3812372c0 .79375-.529169 1.322917-.529169 1.852083z" fill="#ffd1b5"/><path id="path7828" d="m16.17524 8.9994506c.09902 3.9358884-2.727461 4.6838304-3.062862 4.7588824h3.027205c0-.529166.529167-1.058333.529167-1.852083v-2.3812501c0-.2809449-.217427-.5069988-.49351-.5255493z" fill="#ffb98d"/><path id="path7825" d="m11.102681 8.8573403c-.126988-.00888-.25823.018621-.377238.087333-.31735.1832199-.405521.5759516-.241845.9038206l1.951819 3.9098391h.529166l-1.951819-3.9098387c-.163676-.327869-.07551-.7206007.241846-.9038206.02229-.012872.0457-.020981.06873-.031006-.06993-.030899-.144292-.050986-.220659-.056327z" fill="#f5f9fb"/><path id="path7790" d="m1.3125814 5.6709717c-.81791569.164474-1.04799807.8828868-1.04799807 1.3818277v2.2510252c0 .7502934.79374997 2.3378424.79374997 2.8670084v1.058334h4.0157754c0-.527756.5638819-1.319125.5668904-2.38125h-1.9538857c-.1317625-1.0936676-1.0412801-1.3605118-1.0412801-1.8520838v-1.1348143c-.0283724-.9383538-.6806761-1.3414917-1.0583333-1.2149129v-.6469891z" fill="#ffd1b5"/><path id="path7820" d="m1.3125814 5.6709717c-.81791569.164474-1.04799807.8828868-1.04799807 1.3818277v2.2510252c0 .7502934.79374997 2.3378424.79374997 2.8670084v1.058334h.5291667v-1.058334c0-.529166-.79375001-2.116715-.79375001-2.8670084v-2.2510252c0-.4042087.1511409-.9524471.64337161-1.2335163z" fill="#f5f9fb"/><path id="path7810" d="m5.0482706 10.847917c-.912849 1.83643-3.9899373 2.38125-3.9899373 2.38125h4.0157754c0-.527756.5638819-1.319125.5668904-2.38125z" fill="#ffb98d"/><path id="rect7783" d="m12.435406 13.758333h3.704188c.293152 0 .529155.236004.529155.529156v1.852105c0 .293152-.236003.529156-.529155.529156h-3.704188c-.293153 0-.529156-.236004-.529156-.529156v-1.852105c0-.293152.236003-.529156.529156-.529156z" fill="#549ad4"/><path id="path7785" d="m16.340605 13.798113c-.487465 1.953172-3.111439 2.492882-4.410067 2.492882.06515.218386.264761.377755.504879.377755h3.704167c.293152 0 .529166-.236015.529166-.529167v-1.852094c0-.221769-.135454-.41045-.328145-.489376z" fill="#3588cb"/><path id="path7787" d="m12.435417 13.840998c-.293152 0-.529167.236015-.529167.529167v1.769418c0 .293152.236015.529167.529167.529167h.529167c-.293153 0-.529167-.236015-.529167-.529167v-1.769418c0-.293152.236014-.529167.529167-.529167z" fill="#f5f9fb"/><path id="rect7771" d="m1.3229061 13.229177h3.7041881c.2931522 0 .5291556.236004.5291556.529156v2.381261c0 .293152-.2360034.529156-.5291556.529156h-3.7041881c-.2931522 0-.52915564-.236004-.52915564-.529156v-2.381261c0-.293152.23600344-.529156.52915564-.529156z" fill="#549ad4"/><path id="path7773" d="m5.2281047 13.268957c-.4874654 1.953172-3.2403371 2.760813-4.41006678 3.022038.06514843.218386.26476108.377755.50487868.377755h3.7041667c.2931522 0 .5291666-.236015.5291666-.529167v-2.38125c0-.221769-.1354539-.41045-.3281452-.489376z" fill="#3588cb"/><path id="rect7780" d="m1.3229166 13.229167c-.2931522 0-.52916661.236014-.52916661.529166v2.38125c0 .293152.23601441.529167.52916661.529167h.5291667c-.2931522 0-.5291667-.236015-.5291667-.529167v-2.38125c0-.293152.2360145-.529166.5291667-.529166z" fill="#f5f9fb"/><path id="path7803" d="m5.1118325 10.847917c-.00301 1.062125-.5668904 1.853494-.5668904 2.38125h.5291666c0-.527756.5638819-1.319125.5668904-2.38125z" fill="#ffb98d"/><path id="path7808" d="m2.1166666 7.8610189v1.3993977c0 .491572.9095177.7584154 1.0412802 1.8520834h.5291666c-.1317625-1.093667-1.0412801-1.6250948-1.0412801-2.1166668v-1.1348143c-.0283724-.938354-.6806761-1.3414917-1.3229167-1.2149129.1130739-.1265788.7653777.2765589.79375 1.2149129z" fill="#ffb98d"/><path id="path7844" d="m3.4395835 5.8208331c0-1.4612533 1.18458-2.6458332 2.6458333-2.6458332 1.4612533.0000001 2.6458331 1.1845799 2.6458332 2.6458332l-.0000002 1.0583334h-5.2916663z" fill="#ff5151"/><g fill="#ffca28"><path id="path7856" d="m5.291667 6.8791665v-.2645836c0-.4383759.3553739-.7937497.7937498-.7937497.4383758 0 .7937497.3553739.7937497.7937497v.2645836z"/><path id="rect7840" d="m-12.964583 2.3812499c.293159 0 .529167.2360084.529167.5291667v.5291666c0 .2931583-.236008.5291667-.529167.5291667-.293158 0-.529167-.2360084-.529167-.5291667v-.5291666c0-.2931583.236009-.5291667.529167-.5291667z" transform="scale(-1 1)"/><path id="rect7842" d="m10.847917 4.2333331c.293158 0 .529166.236008.529166.529166v.529168c0 .293158-.236008.529166-.529166.529166s-.529166-.236008-.529166-.529166v-.529168c0-.293158.236008-.529166.529166-.529166z"/></g><path id="path7848" d="m6.0854166 3.175c-.1812274 0-.3581826.018518-.5291667.053227 1.2076771.2451537 2.1166667 1.3125805 2.1166667 2.5926066v1.058333h1.0583333v-1.0583333c0-1.4612533-1.1845801-2.6458333-2.6458333-2.6458333z" fill="#ff2929"/><path id="path7853" d="m6.0854166 3.175c-1.4612533 0-2.6458333 1.18458-2.6458333 2.6458333v1.0583333h.5291667v-1.0583333c0-1.3718498 1.0443746-2.5000217 2.3812499-2.6329143-.0871241-.0086606-.1751798-.012919-.2645833-.012919z" fill="#f5f9fb"/><path id="rect820" d="m2.1171835-.00000038c-.58172 0-1.058333.47713011-1.058333 1.05885008v4.4069662c-.37131997.1243-.63896197.3639429-.80305197.6335531-.19234.31604-.25579899.6632601-.25579899.9534303v2.2515423c0 .4684397.21250199 1.0441304.41186199 1.6035194.0997.279701.198061.550874.269751.777214.0717.22635.111104.418058.111104.484208v.999939c-.16134.14555-.26355.355728-.26355.588078v2.380734c0 .435138.358093.7953.79323297.7953h3.705201c.43514 0 .792716-.360162.792716-.7953v-2.380734c0-.31375-.186302-.587002-.453202-.715202.0451-.18091.137365-.429452.240295-.718302.1216-.34123.249281-.746609.287321-1.210779h4.9232145l1.238167 2.477885c-.24599.13524-.413928.397215-.413928.695565v1.851567c0 .435138.357567.7953.792717.7953h3.703133c.435148 0 .7953-.360162.7953-.7953v-1.851567c0-.32911-.206004-.613999-.494543-.733289.0421-.14393.118472-.315007.207222-.514697.13525-.3043.287321-.677097.287321-1.132747 0-3.6156287 0-7.2312564 0-10.8468843 0-.58171997-.477129-1.05885008-1.05885-1.05885008zm0 .52916669h13.7573005c.29772 0 .529167.23195341.529167.52968339v7.7178754c-.0833-.03-.172738-.048609-.265617-.046509-.138201.003-.17661.019558-.26355.048059v-6.9267089c0-.43515-.357576-.7927165-.792716-.7927165h-12.1718685c-.43514 0-.792716.3575665-.792716.7927165v4.5955854c-.0162-.007-.03228-.014588-.04858-.021188-.15489-.0629-.322361-.087644-.480591-.056844v-5.3102699c0-.29772998.231427-.52964288.529167-.52968339zm.529167 6.39909279v-5.0766929c0-.15115.1124-.2635398.2635491-.2635498h12.1718684c.15115 0 .263549.1123998.263549.2635498v6.6626427c-.0822-.0318-.164089-.047542-.263549-.047542-.21784 0-.344383.076963-.392225.1018027-.0633-.1107001-.274674-.3590195-.666626-.3674195-.142668.008-.167216.016592-.265616.045992v-1.1022589h.791166c.14633-.0005556.264408-.1198133.26355-.2661335-.000556-.14532-.11823-.26299-.26355-.2635499h-.791166c0-.4351501-.357567-.7947835-.792717-.7947835s-.7953.3596334-.7953.7947835h-2.3807334c-.14531.0005557-.26298.1182299-.26355.2635499-.000873.1463202.117229.2655737.26355.2661335h2.3807334v2.4504966l-.312126-.5405356c-.25422-.4402698-.823675-.5942708-1.264006-.3400308-.30035.1733999-.454325.4884565-.452685.8102864h-6.8197395c-.1219399-.1336601-.232301-.2421223-.304891-.3302124-.0825-.10013-.105937-.1540976-.105937-.1984375v-1.1392858c-.0113-.3766638-.11133-.6876651-.263549-.928805zm10.3182335-4.811076c-.43515 0-.7953.3575664-.7953.7927165h-2.3807335c-.146321.0005821-.26441.1198036-.26355.2661335.0005821.1453103.11824.26298.26355.2635499h2.3807335c0 .4351401.36015.7927166.7953.7927166.43514 0 .792717-.3575664.792717-.7927166h.794783c.14531-.0005821.262979-.1182396.26355-.2635499.000873-.1463299-.11723-.2655636-.26355-.2661335h-.794783c0-.4351501-.357577-.7927165-.792717-.7927165zm0 .5291666c.15115 0 .26355.1123998.26355.2635499v.5296834c0 .1511501-.1124.2656168-.26355.2656168s-.266133-.1144667-.266133-.2656168v-.5296834c0-.1511501.114983-.2635499.266133-.2635499zm-6.8786505.2635499c-1.60419 0-2.9099 1.3062165-2.9099 2.9104167v1.0583334c-.000847.1463199.11723.2655533.26355.2661335h5.290116c.14733.0008467.266984-.1188037.266134-.2661335v-1.0583334c0-1.6042002-1.3057-2.9104167-2.9099-2.9104167zm-.265617.544153v.2511472c.000582.1461201.119497.2641201.265617.2635499.14532-.0005821.26299-.1182396.26355-.2635499v-.2511472c.46036.0504.880631.2307616 1.223181.5043619l-.178284.1782837c-.10399.1034399-.10399.2717308 0 .3751707.103431.10399.271731.10399.375171 0l.178284-.1782836c.2736.3425502.453485.762821.503845 1.2231812h-.248564c-.146119-.0005821-.265046.1174297-.265616.2635498-.000582.1469301.118686.2661868.265616.2656169h.263034v.5291666h-1.321367c0-.26343-.09821-.5054806-.259415-.6914306l.444933-.4449342c.102611-.1031999.102611-.2699036 0-.3731038-.0491-.0494-.115818-.077531-.185518-.078031-.0704.00001-.137935.028132-.187585.078031l-.515731.513147c-.11126-.0401-.231064-.062012-.3555339-.062012-.58135 0-1.0583331.4769831-1.0583331 1.0583333h-1.3224v-.5291663h.26355c.146119-.0005821.264129-.1194967.263549-.2656169-.000555-.14532-.118229-.26299-.263549-.2635498h-.249081c.0504-.4603602.230752-.8806313.504362-1.2231812l.178284.1782836c.1032.1026102.269904.1026102.373104 0 .10398-.1034399.10398-.2717308 0-.3751707l-.1772509-.1772502c.34225-.2737099.7620879-.4546759 1.2221479-.5053954zm5.0265675.5146971c-.43514 0-.792717.3575667-.792717.7927166h-.2656165c-.146321.000582-.26441.1198033-.26355.2661335.0005821.14531.11824.26298.26355.2635499h.2656165c0 .4351401.357577.7947835.792717.7947835.43515 0 .7953-.3596434.7953-.7947835h2.9099c.14531-.0005821.262979-.1182399.26355-.2635499.000873-.1463302-.11723-.2655636-.26355-.2661335h-2.9099c0-.4351499-.36015-.7927166-.7953-.7927166zm0 .5291667c.15115 0 .266133.1123997.266133.2635499v.5296834c0 .1511501-.114983.2656168-.266133.2656168s-.26355-.1144667-.26355-.2656168v-.5296834c0-.1511502.1124-.2635499.26355-.2635499zm-9.7880334 1.5378906v2.9615764c.00028.14552.1180389.2634967.263549.2640666.14633.000582.2653369-.1177364.265617-.2640666v-1.9311483c0-.1271598.02873-.1453243.06253-.1638142.0338-.0185.112261-.029765.218591.013436.21264.0864.4941571.3763531.511597.9529133v1.1270634c0 .2202299.111419.396858.226859.5369181.11544.1400599.24646.2623222.36897.4004924.24501.2763389.461681.5901629.4630211 1.1797729.000582.14612.1194969.26412.2656169.26355.1453201-.000582.26298-.11824.26355-.26355h1.394746c-.0364.37647-.142177.718532-.254248 1.033012-.104859.29426-.175442.552605-.226342.818555h-3.560507v-.795301c0-.19843-.05771-.400845-.134875-.644405-.0771-.243571-.178753-.515626-.27750297-.792716-.1975-.55418-.380855-1.1459901-.380855-1.42782v-2.2515427c0-.2087589.05051-.470425.177767-.679545.0826-.1357591.192277-.2529983.35191597-.3374473zm5.027083.050126c.29538 0 .529167.2337964.529167.5291666h-1.058334c0-.2953702.233797-.5291666.529167-.5291666zm7.1422004.5291666v3.4390674c.008.34503.521507.34503.529167 0v-1.0583338c0-.1511502.114466-.2661336.265616-.2661336.151151 0 .26355.1149834.26355.2661336v1.0583338c.008.34502.521506.34502.529167 0v-.794784c0-.1511601.114974-.2635498.266134-.2635498.15115 0 .263549.1123897.263549.2635498v.794784c.008.34502.521508.34502.529167 0v-.5291672c0-.1511501.112399-.2656168.26355-.2656168.151149 0 .265617.1144667.265617.2656168v2.3807342c0 .33806-.112515.626773-.241846.917773-.0957.21531-.206983.430273-.258382.670243h-3.304708l-1.878438-3.7635946c-.10897-.21829-.0577-.4450221.136425-.557072.19435-.1122101.43091-.049596.54312.144694l.806669 1.3962976c.13627.22898.487349.135679.49196-.130741.00001-1.3222052 0-2.6473728 0-3.9682331 0-.1511509.114983-.2655763.266133-.2656173.15115-.0000411.26355.1144653.26355.265616zm-9.5208665 3.4390674h6.5820275l.264067.529167h-6.6450735c-.0471-.20015-.117771-.375527-.201021-.529167zm-2.384868 3.439583h3.705201c.15114 0 .263549.11241.263549.26355v2.380734c0 .151149-.112409.265616-.263549.265616h-3.705201c-.15114 0-.263549-.114467-.263549-.265616v-2.380734c0-.15114.112409-.26355.263549-.26355zm11.1125015.529167h3.703133c.151149 0 .265617.1124.265617.26355v1.851567c0 .151149-.114468.265616-.265617.265616h-3.703133c-.15115 0-.265617-.114467-.265617-.265616v-1.851567c0-.15115.114467-.26355.265617-.26355z" fill="#333"/></g></svg>