<svg version="1.1" id="Capa_1" xmlns="http://www.w3.org/2000/svg" xmlns:xlink="http://www.w3.org/1999/xlink" x="0px" y="0px" viewBox="0 0 512 512" style="enable-background:new 0 0 512 512;" xml:space="preserve">
<g>
	<g>
		<path style="fill:#FD8087;" d="M282.265,211.553V39.825c-94.843,0-171.728,76.885-171.728,171.728S187.422,383.28,282.265,383.28&#10;&#9;&#9;&#9;c47.421,0,90.353-19.221,121.43-50.298L282.265,211.553z"/>
		<path style="fill:#FE646F;" d="M378.276,307.564c-36.809,33.519-85.741,53.957-139.448,53.957c-17.43,0-34.352-2.164-50.525-6.217&#10;&#9;&#9;&#9;c27,17.684,59.276,27.977,93.962,27.977c47.421,0,90.353-19.221,121.43-50.298L378.276,307.564z"/>
		<path style="fill:#60B7FF;" d="M326.712,211.553l121.43,121.43c31.077-31.077,50.298-74.008,50.298-121.43H326.712z"/>
		<path style="fill:#26A6FE;" d="M438,211.553c-7.758,27.058-20.886,51.842-38.149,73.14l48.29,48.29&#10;&#9;&#9;&#9;c31.077-31.077,50.298-74.008,50.298-121.43H438z"/>
		<path style="fill:#80D261;" d="M314.59,7.5v171.834l171.728-0.107C486.318,84.385,409.432,7.5,314.59,7.5z"/>
		<path style="fill:#68CA44;" d="M446.007,154.341c0,8.433-0.517,16.743-1.496,24.912l41.807-0.026&#10;&#9;&#9;&#9;c0-60.179-30.961-113.118-77.816-143.784C432.129,69.099,446.007,110.097,446.007,154.341z"/>
		<g>
			<path style="fill:#918291;" d="M181.248,504.5c7.811,0,14.142-6.332,14.142-14.142V268.122c0-7.811-6.332-14.142-14.142-14.142&#10;&#9;&#9;&#9;&#9;H27.704c-7.811,0-14.142,6.332-14.142,14.142v222.236c0,7.811,6.332,14.142,14.142,14.142H181.248z"/>
			<path style="fill:#7A6D79;" d="M181.248,253.98h-28.285c7.811,0,14.142,6.332,14.142,14.142v222.236&#10;&#9;&#9;&#9;&#9;c0,7.811-6.332,14.142-14.142,14.142h28.285c7.811,0,14.142-6.332,14.142-14.142V268.122&#10;&#9;&#9;&#9;&#9;C195.391,260.311,189.059,253.98,181.248,253.98z"/>
			<path style="fill:#EAF6FF;" d="M45.887,464.094V363.077c0-4.463,3.618-8.081,8.081-8.081h101.016&#10;&#9;&#9;&#9;&#9;c4.463,0,8.081,3.618,8.081,8.081v101.016c0,4.463-3.618,8.081-8.081,8.081H53.968C49.505,472.175,45.887,468.557,45.887,464.094&#10;&#9;&#9;&#9;&#9;z"/>
			<path style="fill:#FE9738;" d="M104.476,413.585v58.589h50.508c4.463,0,8.081-3.618,8.081-8.081v-50.508H104.476z"/>
			<path style="fill:#EAF6FF;" d="M45.887,314.589v-20.203c0-4.463,3.618-8.081,8.081-8.081h101.016&#10;&#9;&#9;&#9;&#9;c4.463,0,8.081,3.618,8.081,8.081v20.203c0,4.463-3.618,8.081-8.081,8.081H53.968C49.505,322.671,45.887,319.053,45.887,314.589z&#10;&#9;&#9;&#9;&#9;"/>
		</g>
		<g>
			<circle style="fill:#FFE177;" cx="282.265" cy="211.553" r="68.691"/>
			<path style="fill:#FFD15B;" d="M320.278,154.341c7.248,10.887,11.48,23.954,11.48,38.013c0,37.937-30.754,68.691-68.691,68.691&#10;&#9;&#9;&#9;&#9;c-14.059,0-27.127-4.232-38.013-11.48c12.309,18.489,33.334,30.678,57.211,30.678c37.937,0,68.691-30.754,68.691-68.691&#10;&#9;&#9;&#9;&#9;C350.956,187.675,338.767,166.651,320.278,154.341z"/>
		</g>
	</g>
	<g>
		<path style="fill:none;stroke:#000000;stroke-width:15;stroke-linecap:round;stroke-linejoin:round;stroke-miterlimit:10;" d="&#10;&#9;&#9;&#9;M314.59,150.93V7.5c14.78,0,29.13,1.87,42.82,5.38"/>
		<path style="fill:none;stroke:#000000;stroke-width:15;stroke-linecap:round;stroke-linejoin:round;stroke-miterlimit:10;" d="&#10;&#9;&#9;&#9;M390.31,25.06c56.87,27.98,96.01,86.5,96.01,154.17l-143.39,0.09"/>
		<path style="fill:none;stroke:#000000;stroke-width:15;stroke-linecap:round;stroke-linejoin:round;stroke-miterlimit:10;" d="&#10;&#9;&#9;&#9;M350.956,211.553H498.44c0,47.417-19.223,90.349-50.296,121.432L347.691,232.532"/>
		<path style="fill:none;stroke:#000000;stroke-width:15;stroke-linecap:round;stroke-linejoin:round;stroke-miterlimit:10;" d="&#10;&#9;&#9;&#9;M115.83,253.98c-3.46-13.57-5.29-27.78-5.29-42.43c0-94.84,76.88-171.72,171.72-171.72v103.03"/>
		<path style="fill:none;stroke:#000000;stroke-width:15;stroke-linecap:round;stroke-linejoin:round;stroke-miterlimit:10;" d="&#10;&#9;&#9;&#9;M195.39,359.71c25.48,14.98,55.17,23.57,86.87,23.57c7.41,0,14.71-0.47,21.87-1.38"/>
		<path style="fill:none;stroke:#000000;stroke-width:15;stroke-linecap:round;stroke-linejoin:round;stroke-miterlimit:10;" d="&#10;&#9;&#9;&#9;M330.83,260.12l72.87,72.86c-18.22,18.22-40.51,32.36-65.39,40.95"/>
		<path style="fill:none;stroke:#000000;stroke-width:15;stroke-linecap:round;stroke-linejoin:round;stroke-miterlimit:10;" d="&#10;&#9;&#9;&#9;M45.887,464.094V363.077c0-4.463,3.618-8.081,8.081-8.081h101.016c4.463,0,8.081,3.618,8.081,8.081v101.016&#10;&#9;&#9;&#9;c0,4.463-3.618,8.081-8.081,8.081H53.968C49.505,472.175,45.887,468.557,45.887,464.094z"/>
		<path style="fill:none;stroke:#000000;stroke-width:15;stroke-linecap:round;stroke-linejoin:round;stroke-miterlimit:10;" d="&#10;&#9;&#9;&#9;M45.887,314.589v-20.203c0-4.463,3.618-8.081,8.081-8.081h101.016c4.463,0,8.081,3.618,8.081,8.081v20.203&#10;&#9;&#9;&#9;c0,4.463-3.618,8.081-8.081,8.081H53.968C49.505,322.671,45.887,319.053,45.887,314.589z"/>
		<path style="fill:none;stroke:#000000;stroke-width:15;stroke-linecap:round;stroke-linejoin:round;stroke-miterlimit:10;" d="&#10;&#9;&#9;&#9;M13.56,431.14v59.22c0,7.81,6.33,14.14,14.14,14.14h153.55c7.81,0,14.14-6.33,14.14-14.14V268.12c0-7.81-6.33-14.14-14.14-14.14&#10;&#9;&#9;&#9;H27.7c-7.81,0-14.14,6.33-14.14,14.14v127.92"/>
		
			<line style="fill:none;stroke:#000000;stroke-width:15;stroke-linecap:round;stroke-linejoin:round;stroke-miterlimit:10;" x1="104.476" y1="354.996" x2="104.476" y2="472.175"/>
		
			<line style="fill:none;stroke:#000000;stroke-width:15;stroke-linecap:round;stroke-linejoin:round;stroke-miterlimit:10;" x1="163.066" y1="413.585" x2="45.887" y2="413.585"/>
		
			<circle style="fill:none;stroke:#000000;stroke-width:15;stroke-linecap:round;stroke-linejoin:round;stroke-miterlimit:10;" cx="282.265" cy="211.553" r="68.691"/>
		<g>
			<path style="fill:none;stroke:#000000;stroke-width:15;stroke-linecap:round;stroke-linejoin:round;stroke-miterlimit:10;" d="&#10;&#9;&#9;&#9;&#9;M293.832,185.908c0,0-8.037-7.461-18.011-3.876c-11.234,4.039-10.353,16.416-4.021,21.383c3.636,2.852,9.106,5.196,16.479,7.803&#10;&#9;&#9;&#9;&#9;c16.502,5.833,10.402,29.105-6.384,29.216c-6.551,0.044-9.613-0.372-15.367-4.136"/>
			
				<line style="fill:none;stroke:#000000;stroke-width:15;stroke-linecap:round;stroke-linejoin:round;stroke-miterlimit:10;" x1="281.896" y1="240.434" x2="281.896" y2="248.929"/>
			
				<line style="fill:none;stroke:#000000;stroke-width:15;stroke-linecap:round;stroke-linejoin:round;stroke-miterlimit:10;" x1="281.896" y1="174.177" x2="281.896" y2="181.058"/>
		</g>
	</g>
</g>
<g>
</g>
<g>
</g>
<g>
</g>
<g>
</g>
<g>
</g>
<g>
</g>
<g>
</g>
<g>
</g>
<g>
</g>
<g>
</g>
<g>
</g>
<g>
</g>
<g>
</g>
<g>
</g>
<g>
</g>
</svg>