<svg id="Layer_1" enable-background="new 0 0 512 512" height="512" viewBox="0 0 512 512" width="512" xmlns="http://www.w3.org/2000/svg" xmlns:xlink="http://www.w3.org/1999/xlink"><linearGradient id="SVGID_1_" gradientUnits="userSpaceOnUse" x1="93.821" x2="512.825" y1="518.546" y2="99.541"><stop offset="0" stop-color="#fc4422"/><stop offset="1" stop-color="#ffbb32"/></linearGradient><path d="m129.164 386.288v73.033c0 16.361-13.316 29.679-29.686 29.679h-22.926c-16.368 0-29.686-13.319-29.686-29.679v-73.033c0-16.37 13.318-29.679 29.686-29.679h22.927c16.369 0 29.685 13.309 29.685 29.679zm-41.149-114.518c16.399 0 29.741-13.338 29.741-29.74 0-4.827-1.168-9.401-3.225-13.441l69.771-63.927c4.56 2.849 9.942 4.499 15.703 4.499 10.744 0 20.174-5.731 25.402-14.289l56.851 15.99c0 .019-.002.028-.002.047 0 16.402 13.342 29.74 29.74 29.74 16.397 0 29.739-13.338 29.739-29.74 0-5.577-1.549-10.807-4.238-15.278l72.602-76.609c4.146 2.208 8.873 3.458 13.887 3.458 16.399 0 29.741-13.337 29.741-29.74 0-16.398-13.342-29.74-29.741-29.74s-29.739 13.342-29.739 29.74c0 5.582 1.549 10.812 4.236 15.282l-72.598 76.595c-4.148-2.198-8.875-3.444-13.889-3.444-10.744 0-20.176 5.727-25.402 14.289l-56.851-15.99c0-.009.002-.032.002-.052 0-16.402-13.342-29.74-29.741-29.74-16.397 0-29.739 13.338-29.739 29.74 0 4.841 1.168 9.401 3.226 13.45l-69.773 63.918c-4.56-2.84-9.94-4.499-15.703-4.499-16.399 0-29.739 13.342-29.739 29.74 0 16.403 13.34 29.741 29.739 29.741zm235.444 27.668h-22.929c-16.368 0-29.684 13.324-29.684 29.693v130.189c0 16.361 13.316 29.679 29.684 29.679h22.929c16.368 0 29.686-13.319 29.686-29.679v-130.188c0-16.37-13.318-29.694-29.686-29.694zm-111.989-34.599h-22.929c-16.368 0-29.685 13.324-29.685 29.693v164.789c0 16.361 13.318 29.679 29.685 29.679h22.929c16.368 0 29.684-13.319 29.684-29.679v-164.789c-.001-16.37-13.317-29.693-29.684-29.693zm223.981-85.739h-22.929c-16.368 0-29.684 13.319-29.684 29.689v250.532c0 16.361 13.316 29.679 29.684 29.679h22.929c16.368 0 29.684-13.319 29.684-29.679v-250.532c-.001-16.37-13.317-29.689-29.684-29.689z" fill="url(#SVGID_1_)"/></svg>