<svg id="Flat_line_color" viewBox="0 0 64 64" xmlns="http://www.w3.org/2000/svg"><g><path d="m13.8 10.09h4v34h-4z" fill="#697dbd" transform="matrix(.739 .674 -.674 .739 22.38 -3.58)"/><path d="m23.91 14h4v4h-4z" fill="#4f5e8e" transform="matrix(.739 .674 -.674 .739 17.55 -13.28)"/><path d="m17.02 22.78 8.76-9.6 2.96 2.69-22.91 25.12-2.96-2.69 10.11-11.08" fill="none" stroke="#282f47" stroke-linecap="round" stroke-linejoin="round" stroke-width="2"/><g><g><g><path d="m15.44 3.74c-.24.27-.44.56-.63.86 3.3.39 7.38 2.19 11.38 5.15l2.02-2.22c-3.83-2.83-7.72-4.59-10.94-5.08-.71.3-1.33.72-1.83 1.28z" fill="#b3b3b3"/><path d="m40.47 24.82c-.4-3.44-2.67-7.77-6.36-11.88l-2.02 2.22c3.69 4.11 5.96 8.44 6.36 11.88.51-.28.98-.63 1.37-1.05.35-.38.63-.82.85-1.29-.07.04-.13.09-.2.13z" fill="#b3b3b3"/><g fill="#ccc"><path d="m17.27 2.46c3.22.49 7.11 2.25 10.94 5.08l1.93-2.11c-4.77-3.17-9.71-4.31-12.87-2.97z"/><path d="m40.67 24.69c1.6-3.44-.22-9-4.53-13.97l-2.03 2.22c3.69 4.11 5.96 8.44 6.36 11.88.07-.04.13-.09.2-.13z"/></g></g><path d="m32.1 15.16-1.88 2.06-5.91-5.39 1.89-2.07c1.04.77 2.08 1.62 3.09 2.55s1.96 1.88 2.81 2.85z" fill="#9e8927"/><path d="m31.04 4.44-.9.99-3.95 4.33c1.04.77 2.08 1.62 3.09 2.55s1.96 1.88 2.81 2.85l4.05-4.44.81-.89z" fill="#d3b634"/></g><g fill="none" stroke="#282f47" stroke-linecap="round" stroke-linejoin="round" stroke-width="2"><path d="m30.14 5.43c-5.83-3.87-11.93-4.73-14.7-1.69-.24.27-.44.56-.63.86 3.3.39 7.38 2.19 11.38 5.15"/><path d="m32.1 15.16c3.69 4.11 5.96 8.44 6.36 11.88.51-.28.98-.63 1.37-1.05 2.91-3.19 1.22-9.61-3.67-15.26"/><path d="m32.1 15.16-1.88 2.06-5.92-5.39 1.89-2.07 3.95-4.33.9-.99 5.91 5.39-.8.89z"/></g></g><circle cx="15" cy="25" fill="#282f47" r="1"/></g><g><path d="m61 51.15v10.85h-40l4-15 4-7 8-8 13 1 3 8 4 2v6z" fill="#697dbd"/><path d="m52 49v-6l-4-2-3-8-8.36-.64-7.64 7.64-4 7-4 15h35v-10.85z" fill="#8797ca"/><path d="m30 39-1 1-4 7-4 15h40v-10.85l-4-2.15v-6l-4-2-3-8-13-1-4 4" fill="none" stroke="#282f47" stroke-linecap="round" stroke-linejoin="round" stroke-width="2"/><g><g><g fill="#d3b634"><path d="m51.09 44.4s-.04-.08-.06-.13l-16.94 5.86v.03c.18.64.43 1.25.73 1.83l16.81-5.81c-.12-.62-.3-1.21-.53-1.78z"/><path d="m48.2 40.7c-1.51-1.13-3.38-1.81-5.41-1.81-4.13 0-7.61 2.79-8.66 6.58-.04.15-.07.3-.11.45l14.43-4.99c-.09-.07-.16-.16-.26-.23z"/><path d="m37.65 55.25c.43.3.87.58 1.35.8 1.15.54 2.43.85 3.79.85 3.46 0 6.47-1.97 7.97-4.84.26-.49.46-1.01.62-1.55l-13.73 4.75z"/></g><path d="m50.26 42.87c-.3-.44-.63-.85-1-1.23-.25-.26-.53-.48-.8-.71l-14.43 4.99c-.07.31-.13.63-.17.95-.04.33-.06.67-.06 1.02 0 .18.02.36.03.55.03.58.13 1.15.26 1.69l16.94-5.86c-.22-.49-.47-.96-.77-1.4z" fill="#e5d385"/><path d="m51.46 50.26c.13-.45.22-.92.27-1.39.04-.33.06-.65.06-.98 0-.59-.06-1.16-.17-1.71l-16.81 5.81c.4.77.89 1.49 1.48 2.11.33.34.68.65 1.06.94.1.07.2.13.3.2l13.73-4.75c.02-.08.06-.16.08-.24z" fill="#e5d385"/></g><path d="m51.09 44.4c-.23-.54-.51-1.05-.83-1.53-.3-.44-.63-.85-1-1.23-.33-.34-.68-.65-1.06-.94-1.51-1.13-3.38-1.81-5.41-1.81-4.13 0-7.61 2.79-8.66 6.58-.13.45-.22.92-.28 1.4-.04.33-.06.67-.06 1.02 0 .18.02.36.03.55.03.59.13 1.17.27 1.72.4 1.5 1.16 2.85 2.2 3.94.33.34.68.65 1.06.94.51.39 1.06.73 1.65 1 1.15.54 2.43.85 3.79.85 3.46 0 6.47-1.97 7.97-4.84.3-.56.53-1.16.7-1.79.13-.45.22-.92.27-1.39.04-.33.06-.65.06-.98 0-1.24-.25-2.41-.7-3.49z" fill="none" stroke="#282f47" stroke-miterlimit="10" stroke-width="2"/><path d="m46.08 47.74c.25-.4.4-.87.4-1.37 0-1.45-1.18-2.63-2.62-2.63h-.18v-1.47c0-.27-.22-.49-.48-.49s-.48.22-.48.49v1.47h-.7v-1.47c0-.27-.22-.49-.48-.49s-.48.22-.48.49v1.47h-1.68c-.53 0-.97.43-.97.97s.42.95.95.97v4.7c-.52.01-.95.44-.95.97s.43.97.97.97h1.68v1.2c0 .27.22.49.48.49s.48-.22.48-.49v-1.2h.7v1.2c0 .27.22.49.48.49s.48-.22.48-.49v-1.2h.65c1.45 0 2.62-1.18 2.62-2.63 0-.77-.34-1.46-.87-1.94zm-1.54-1.37c0 .38-.31.69-.69.69h-2.58v-1.38h2.58c.38 0 .69.31.69.69zm-.21 4h-3.05v-1.37h3.05c.38 0 .69.31.69.69s-.31.69-.69.69z" fill="#282f47"/></g><g><path d="m29 58 1 4h-22l1-7 7-6h6l6 3z" fill="#4f5e8e"/><path d="m21 52-5.37-2.68-6.63 5.68-1 7h15l-1-4z" fill="#727ea5"/><path d="m16 49h6l6 3 1 6 1 4h-22l1-7z" fill="none" stroke="#282f47" stroke-linecap="round" stroke-linejoin="round" stroke-width="2"/></g><g fill="none" stroke="#282f47" stroke-linecap="round" stroke-linejoin="round" stroke-width="2"><path d="m49 24-1 5"/><path d="m52 30 3-2"/></g></g></svg>