<svg id="Layer_1" enable-background="new 0 0 512 512" height="512" viewBox="0 0 512 512" width="512" xmlns="http://www.w3.org/2000/svg"><g clip-rule="evenodd" fill-rule="evenodd"><g><g><circle cx="312.089" cy="114.833" fill="#ffe177" r="87.84"/><path d="m312.089 26.993c48.513 0 87.84 39.328 87.84 87.84s-39.327 87.84-87.84 87.84c-1.99 0-3.962-.073-5.918-.203 45.752-3.045 81.922-41.114 81.922-87.637s-36.17-84.593-81.922-87.637c1.956-.13 3.928-.203 5.918-.203z" fill="#ffd064"/><ellipse cx="312.089" cy="114.833" fill="#ffc338" rx="67.077" ry="67.077" transform="matrix(.987 -.16 .16 .987 -14.364 51.474)"/><path d="m312.089 47.756c-37.045 0-67.076 30.031-67.076 67.076s30.031 67.077 67.076 67.077c1.821 0 3.625-.075 5.41-.218-34.516-2.755-61.667-31.635-61.667-66.859s27.151-64.104 61.667-66.859c-1.785-.141-3.589-.217-5.41-.217z" fill="#f5b829"/></g><g><path d="m467.595 177.206-65.347-37.86c-12.264-7.105-24.734-12.144-38.214-7.771-15.029 4.874-39.571 15.339-64.599 19.854-9.29 3.012-15.081 12.314-12.554 21.746 2.528 9.433 10.499 14.297 21.746 12.557l-8.749 1.401c-10.026 1.603-19.233.231-28.008-4.879l-62.828-36.594c-48.837-28.443-56.011 15.315-39.773 25.312l114.017 70.207c10.486 6.456 21.961 7.962 33.856 4.774l82.7-22.16 30.627 17.683c5.888 3.399 13.464 1.37 16.864-4.519l24.766-42.896c3.395-5.883 1.374-13.45-4.504-16.855z" fill="#f6dccd"/><path d="m288.371 177.089c3.492 6.825 10.688 10.124 20.255 8.644 13.547-3.582 27.078-7.255 40.613-10.882 3.626-.971 5.777-4.698 4.806-8.323-.971-3.626-4.698-5.777-8.323-4.806z" fill="#f1cbbc"/><path d="m467.595 177.206-65.347-37.86c-12.264-7.105-24.734-12.144-38.214-7.771-8.04 2.608-18.805 6.815-30.909 10.856l126.586 73.085 12.387-21.456c3.397-5.882 1.375-13.448-4.503-16.854z" fill="#f1cbbc"/><path d="m461.079 156.586-51.825 91.571c-2.506 4.428-.933 10.1 3.494 12.606l17.628 9.977c4.428 2.506 10.1.933 12.607-3.494l51.825-91.572c2.506-4.428.933-10.101-3.495-12.606l-17.628-9.977c-4.427-2.505-10.1-.932-12.606 3.495z" fill="#d1d1d6"/><path d="m433.822 219.502-9.173 16.208-9.071 16.027c-2.501 4.419-.94 10.077 3.467 12.591l-6.297-3.564c-4.427-2.506-6-8.179-3.494-12.606l9.102-16.082 18.276-32.291 18.296-32.327 6.153-10.871c2.17-3.836 6.718-5.528 10.774-4.283l-10.653 18.822-18.275 32.291-9.101 16.082z" fill="#b1b1b5"/></g><g><path d="m211.15 232.429 63.641 36.743c1.938 1.119 3.047 3.04 3.047 5.277v73.487c0 2.237-1.109 4.159-3.047 5.277l-63.641 36.743c-1.938 1.119-4.156 1.119-6.093 0l-63.641-36.743c-1.938-1.119-3.047-3.04-3.047-5.277v-73.486c0-2.237 1.109-4.159 3.047-5.277l63.641-36.743c1.938-1.119 4.156-1.119 6.093-.001z" fill="#f2d1a5"/><path d="m178.778 325.97-12.606-7.278c-1.938-1.119-3.047-3.04-3.047-5.277v-28.191l20.223 11.676v26.431c0 1.119-.555 2.079-1.524 2.638-.968.56-2.077.56-3.046.001z" fill="#e3a76f"/><path d="m211.15 232.429 63.641 36.743c.969.559 1.731 1.319 2.25 2.219l-68.938 39.802-68.938-39.802c.519-.9 1.281-1.66 2.25-2.219l63.641-36.743c1.939-1.118 4.157-1.118 6.094 0z" fill="#e3a76f"/><path d="m163.125 285.224 20.223 11.676 69.735-40.262-20.223-11.675z" fill="#c48958"/><path d="m277.042 271.392c.52.9.797 1.939.797 3.058v73.487c0 2.237-1.109 4.159-3.047 5.277l-63.641 36.743c-.969.559-2.008.839-3.047.839v-79.603z" fill="#ecba78"/></g><g><path d="m44.405 390.279 65.347-37.859c12.264-7.105 24.735-12.144 38.215-7.771 15.029 4.874 39.571 15.339 64.599 19.853 9.29 3.012 15.081 12.314 12.554 21.746-2.528 9.433-10.499 14.297-21.746 12.557l8.749 1.401c10.026 1.603 19.233.231 28.008-4.879l62.828-36.594c48.838-28.443 56.011 15.315 39.773 25.312l-114.017 70.207c-10.486 6.456-21.961 7.962-33.856 4.774l-82.7-22.159-30.627 17.683c-5.888 3.399-13.464 1.37-16.864-4.519l-24.766-42.896c-3.396-5.884-1.375-13.45 4.503-16.856z" fill="#f6dccd"/><path d="m223.629 390.162c-3.492 6.825-10.688 10.124-20.255 8.644-13.547-3.582-27.078-7.255-40.613-10.882-3.626-.971-5.777-4.698-4.806-8.323s4.698-5.777 8.323-4.806z" fill="#f1cbbc"/><path d="m44.405 390.279 65.347-37.859c12.264-7.105 24.735-12.144 38.215-7.771 8.04 2.607 18.805 6.815 30.909 10.856l-126.587 73.086-12.387-21.456c-3.397-5.883-1.375-13.45 4.503-16.856z" fill="#f1cbbc"/><path d="m50.921 369.66 51.825 91.572c2.506 4.428.934 10.101-3.494 12.607l-17.628 9.977c-4.428 2.506-10.1.933-12.606-3.494l-51.825-91.572c-2.505-4.428-.933-10.101 3.495-12.607l17.628-9.977c4.426-2.506 10.099-.934 12.605 3.494z" fill="#d1d1d6"/><path d="m78.178 432.575 9.173 16.208 9.071 16.027c2.501 4.419.94 10.077-3.467 12.591l6.297-3.564c4.427-2.506 6-8.179 3.494-12.607l-9.101-16.082-18.276-32.291-18.296-32.327-6.153-10.871c-2.171-3.835-6.718-5.528-10.774-4.283l10.653 18.822 18.275 32.291 9.102 16.082z" fill="#b1b1b5"/></g></g><path d="m79.109 114.834c0-2.466 1.13-4.791 3.06-6.307l22.075-17.232c3.483-2.721 8.519-2.099 11.249 1.379 2.683 3.483 2.071 8.51-1.412 11.231l-3.718 2.928h83.877c4.424 0 8.002 3.582 8.002 8.002 0 4.415-3.577 7.997-8.002 7.997h-83.877l3.718 2.928c3.483 2.721 4.095 7.748 1.412 11.231-1.6 2.019-3.954 3.074-6.307 3.078-1.742 0-3.483-.556-4.942-1.699l-22.075-17.232c-1.93-1.518-3.06-3.843-3.06-6.304zm343.885 196.352c0 2.471-1.13 4.792-3.107 6.312l-22.028 17.227c-1.459 1.144-3.201 1.704-4.942 1.704-2.401 0-4.707-1.064-6.307-3.083-2.73-3.478-2.118-8.51 1.365-11.231l3.765-2.928h-83.924c-4.377 0-8.002-3.582-8.002-8.002 0-4.41 3.624-7.997 8.002-7.997h83.924l-3.765-2.923c-3.483-2.716-4.095-7.748-1.365-11.231s7.719-4.104 11.25-1.379l22.028 17.232c1.976 1.521 3.106 3.842 3.106 6.299zm55.306-133.746c-.518 3.436-3.719 5.818-7.154 5.319-3.436-.504-5.837-3.7-5.319-7.14.518-3.441 3.671-5.822 7.155-5.319 3.435.503 5.789 3.699 5.318 7.14zm9.555-5.714c.329-.584.094-1.379-.471-1.709l-17.651-9.979c-.188-.118-.424-.155-.565-.155s-.282.023-.377.052c-.235.061-.565.217-.753.574v.005l-51.823 91.582c-.33.579-.141 1.374.471 1.704l17.604 9.979c.612.325 1.412.104 1.742-.475zm-83.971 45.176 10.449 6.034 28.712-50.721-44.762-25.916c-13.697-7.917-22.875-9.969-31.771-7.089-3.766 1.229-8.143 2.81-13.226 4.65-14.638 5.295-32.854 11.871-51.823 15.359-5.225 1.921-8.19 6.966-6.825 11.918.518 1.972 2.118 7.931 11.814 6.839 9.131-1.883 17.839-4.363 27.018-6.99 4.424-1.261 8.99-2.57 13.697-3.831 4.283-1.139 8.661 1.388 9.837 5.658 1.13 4.264-1.412 8.651-5.695 9.795-4.566 1.229-9.084 2.518-13.415 3.765-9.649 2.749-18.733 5.347-28.618 7.362-.047.009-8.096 1.327-8.096 1.327-12.285 1.963-23.158.042-33.325-5.865l-62.837-36.596c-16.521-9.635-29.559-11.056-33.937-3.714-3.201 5.347-1.365 13.01 2.354 15.302l114.048 70.217c8.472 5.201 17.745 6.501 27.629 3.86l82.7-22.165c2.024-.55 4.236-.263 6.072.801zm-62.319-85.83c-.047-.499-.094-.998-.141-1.502-1.506-12.379-10.92-20.07-27.959-22.875-12.379-2.029-12.567-6.387-12.661-8.03-.282-6.058 6.025-7.969 7.955-8.407 4.283-.974 12.426-.527 15.721 7.291 1.695 4.076 6.402 5.992 10.449 4.283 4.095-1.713 6.025-6.402 4.283-10.478-3.907-9.338-11.297-14.497-19.11-16.493v-2.481c0-4.415-3.577-7.997-8.002-7.997s-8.002 3.582-8.002 7.997v2.556c-12.144 3.219-19.816 12.939-19.298 24.504.377 7.065 4.189 19.454 26.076 23.045 13.838 2.278 14.403 6.994 14.686 9.009.141 1.327.47 4.038-4.142 6.312-2.024.612-4.095 1.205-6.119 1.779-.847.108-1.695.184-2.542.207-5.601.127-12.756-2.104-14.403-8.854-1.083-4.288-5.413-6.9-9.696-5.827-4.331 1.069-6.919 5.408-5.837 9.696 1.224 4.872 3.719 9.098 7.154 12.464-5.79 3.916-9.743 9.833-11.108 16.389-15.862-10.854-25.841-29.093-25.841-48.829 0-32.576 26.5-59.076 59.071-59.076s59.071 26.5 59.071 59.076c0 2.443-.188 4.881-.471 7.291-2.965.264-6.025.861-9.131 1.869-4.001 1.308-8.755 3.012-13.744 4.82-2.023.736-4.094 1.494-6.259 2.261zm-109.294-16.238c0-44.028 35.772-79.843 79.829-79.843 44.009 0 79.829 35.815 79.829 79.843 0 3.469-.236 6.929-.659 10.35-1.506-.555-3.059-1.05-4.613-1.478.33-2.942.518-5.902.518-8.872 0-41.402-33.701-75.079-75.075-75.079-41.421 0-75.075 33.678-75.075 75.079 0 17.905 6.448 34.84 17.51 48.086l-10.261-5.978c-7.861-12.629-12.003-27.145-12.003-42.108zm262.974 41.26-17.604-9.979c-4.001-2.264-8.661-2.834-13.132-1.601-4.424 1.233-8.143 4.114-10.402 8.12l-3.201 5.653-44.574-25.827c1.035-5.794 1.6-11.701 1.6-17.627 0-52.849-42.974-95.841-95.832-95.841s-95.832 42.993-95.832 95.841c0 9.668 1.412 19.176 4.236 28.27l-7.437-4.326c-37.561-21.873-52.152-4.085-55.729 1.888-7.39 12.384-3.719 30.091 7.719 37.151l114.048 70.213c8.143 5.017 17.086 7.559 26.264 7.559 4.566 0 9.225-.621 13.838-1.869l79.546-21.303 7.672 4.448-4.142 7.352c-4.707 8.275-1.742 18.823 6.496 23.506l17.651 9.979c2.683 1.516 5.601 2.236 8.472 2.236 6.025 0 11.861-3.149 15.015-8.75l51.87-91.582c4.66-8.28 1.742-18.828-6.542-23.511zm-449.084 232.591c.518 3.441-1.883 6.641-5.319 7.14-3.436.513-6.637-1.869-7.108-5.309-.518-3.441 1.883-6.637 5.319-7.141 3.437-.508 6.638 1.874 7.108 5.31zm292.392-11.419-114.048 70.213c-8.472 5.196-17.745 6.5-27.582 3.86l-82.7-22.16c-2.071-.551-4.236-.259-6.072.8l-10.449 6.03-28.712-50.723 44.762-25.921c13.65-7.908 22.829-9.96 31.725-7.079 3.766 1.233 8.143 2.81 13.226 4.65 14.686 5.291 32.854 11.871 51.823 15.359 5.225 1.92 8.19 6.961 6.872 11.908-.565 1.982-2.165 7.945-11.861 6.844-9.132-1.883-17.839-4.363-27.017-6.99-4.425-1.261-8.99-2.57-13.697-3.831-4.283-1.139-8.661 1.388-9.79 5.662-1.177 4.269 1.365 8.647 5.648 9.8 4.565 1.219 9.084 2.509 13.461 3.756 9.602 2.753 18.734 5.352 28.571 7.361.047.009 8.143 1.332 8.143 1.332 12.238 1.958 23.158.038 33.278-5.86l62.837-36.601c16.568-9.63 29.559-11.061 33.936-3.719 3.2 5.349 1.364 13.021-2.354 15.309zm-243.252 89.609c.612-.329.8-1.13.471-1.708l-51.823-91.582c-.188-.4-.659-.626-1.083-.626-.236 0-.424.047-.612.16l-17.604 9.969c-.376.212-.518.527-.612.758-.047.231-.094.593.141.951l51.823 91.582c.329.579 1.13.795 1.694.471zm112.824-226.97 8.755 5.055-53.753 31.023-8.755-5.055zm-24.758 47.756-4.236-2.438 53.706-31.023 4.236 2.438zm-12.238 11.419 4.236 2.438v13.226l-4.236-2.429zm36.996 2.876-8.755-5.06 53.706-31.018 8.755 5.051zm-52.999-12.116-8.755-5.051v51.187c1.318.292 2.683.65 4.048 1.092 4.048 1.309 8.755 3.008 13.744 4.815 10.544 3.803 22.97 8.303 35.961 11.682v-37.759l-8.755-5.051v17.849c0 2.862-1.553 5.502-4.001 6.933-1.271.706-2.636 1.068-4.001 1.068-1.412 0-2.777-.362-4.001-1.068l-20.24-11.683c-2.495-1.431-4.001-4.071-4.001-6.928v-27.086zm75.357 79.725 39.35-22.73v-62.045l-53.706 31.018v41.501c6.307 2.339 11.343 6.796 14.356 12.256zm68.438-17.721-62.837 36.605c-1.271.749-2.542 1.398-3.86 1.949.235-.664.423-1.351.612-2.052.141-.64.282-1.28.423-1.921l48.575-28.048c2.495-1.431 4.001-4.071 4.001-6.919v-80.53c0-2.857-1.506-5.497-4.001-6.924l-69.709-40.262c-2.495-1.431-5.554-1.431-8.002 0l-69.756 40.262c-2.495 1.426-4.001 4.067-4.001 6.924v64.738c-8.99 1.52-17.274 5.582-24.664 9.861l-44.621 25.841-3.201-5.663c-4.66-8.28-15.203-11.198-23.487-6.519l-17.651 9.983c-4.001 2.259-6.872 5.959-8.096 10.407-1.271 4.453-.659 9.098 1.6 13.099l51.823 91.582c3.154 5.601 9.037 8.75 15.062 8.75 2.824 0 5.789-.72 8.425-2.231l17.651-9.979c8.284-4.683 11.202-15.231 6.495-23.511l-4.142-7.352 7.719-4.448 79.499 21.299c4.66 1.252 9.273 1.873 13.839 1.873 9.225 0 18.121-2.542 26.264-7.554l114.048-70.217c11.438-7.06 15.156-24.763 7.719-37.151-3.575-5.968-18.166-23.76-55.727-1.892z"/></g></svg>