<svg id="Capa_1" enable-background="new 0 0 512 512" height="512" viewBox="0 0 512 512" width="512" xmlns="http://www.w3.org/2000/svg"><g><g><g><g><circle cx="256" cy="256" fill="#ffcd55" r="248.5"/><g><g><path d="m351.116 26.37-95.116 229.63v-248.5c33.695 0 65.816 6.72 95.116 18.87z" fill="#f9b83f"/></g><g fill="#f9b83f"><path d="m431.716 80.284c22.889 22.889 41.319 50.229 53.914 80.6l-229.63 95.116z"/><path d="m256 256 229.63 95.116c12.15-29.3 18.87-61.421 18.87-95.116z"/></g></g><g><g><path d="m160.884 485.63 95.116-229.63v248.5c-33.695 0-65.816-6.72-95.116-18.87z" fill="#f9b83f"/></g><g fill="#f9b83f"><path d="m80.284 431.716c-22.889-22.889-41.319-50.229-53.914-80.6l229.63-95.116z"/><path d="m256 256-229.63-95.116c-12.15 29.3-18.87 61.421-18.87 95.116z"/></g></g></g><circle cx="256" cy="256" fill="#fff4ca" r="208.5"/><g><path d="m342.168 445.847c1.993-.908 3.965-1.855 5.925-2.824-1.925.952-3.867 1.877-5.825 2.771z" fill="#fff4ca"/><g fill="#f9b83f"><path d="m348.293 442.923c-.067.033-.134.067-.201.1.068-.033.134-.067.201-.1z"/><path d="m386.478 418.498-.001.001z"/></g></g><path d="m326.687 331h-141.374s-40.792 26.498-59.792 87.498c11.753 9.456 24.551 17.664 38.187 24.426.066.032.132.065.198.098 1.926.952 3.868 1.877 5.826 2.771l.1.053c26.278 11.975 55.457 18.654 86.168 18.654s59.89-6.679 86.168-18.653l.1-.053c1.958-.894 3.899-1.819 5.825-2.771.067-.033.134-.067.201-.1 13.635-6.761 26.431-14.969 38.183-24.424 0 0 .001-.001.001-.001-18.999-61-59.791-87.498-59.791-87.498z" fill="#f9b83f"/><g><path d="m306.524 347.667h-101.048s-34.476 34.833-50.12 89.276c2.28 1.835 4.62 3.597 7 5.308 28.174 14.223 59.987 22.249 93.644 22.249s65.47-8.026 93.644-22.25c2.38-1.71 4.72-3.473 7-5.308-14.476-52.942-50.12-89.275-50.12-89.275z" fill="#f6f3f5"/></g><g><path d="m373.248 214.795c15.154-21.358 20.496-67.539 10.984-75.131-9.968-7.956-42.994 4.271-62.691 20.651-19.551-12.778-41.855-20.651-65.541-20.651-24.008 0-46.6 8.083-66.34 21.17-19.617-16.637-53.222-29.209-63.294-21.17-9.671 7.719-3.988 55.327 11.751 76.18-13.898 23.38-21.956 49.077-21.956 72.372 0 64.939 62.608 86.611 139.84 86.611s139.84-21.672 139.84-86.611c-.001-23.644-8.309-49.762-22.593-73.421z" fill="#ffcd55"/><g><path d="m373.248 214.795c15.154-21.358 20.496-67.539 10.984-75.131-6.254-4.992-21.583-2.037-37.003 4.901 4.296 12.633.464 42.572-9.317 62.313-2.637 5.322-2.395 11.583.377 16.836 11.179 21.189 17.551 43.794 17.551 64.502 0 59.228-52.084 82.461-119.84 86.09 6.533.35 13.208.521 20 .521 77.231 0 139.84-21.672 139.84-86.611 0-23.644-8.308-49.762-22.592-73.421z" fill="#ffbe46"/></g><path d="m353.625 200.625c5.854-7.5 12.149-25.634 6.123-30.338s-22.09 5.805-27.944 13.304z" fill="#fff4ca"/><path d="m156.844 200.625c-5.854-7.5-12.149-25.634-6.123-30.338s22.09 5.805 27.944 13.304z" fill="#fff4ca"/><g><path d="m348.089 250.868c-47.03-9.886-73.153 25.111-73.153 25.111h-38.313s-26.123-34.997-73.153-25.111c-37.431 7.868-47.31 37.349-47.31 37.349 0 64.939 62.608 87.611 139.84 87.611s139.84-22.672 139.84-87.611c0-.429-.023-.864-.028-1.295-2.598-5.77-14.993-29.174-47.723-36.054z" fill="#f6f3f5"/></g><g><path d="m395.812 286.922c-2.561-5.69-14.666-28.517-46.388-35.747 3.797 11.796 6.677 24.656 6.388 35.747.005.43.028.866.028 1.295 0 59.228-52.084 83.293-119.84 87.068 6.533.364 13.208.543 20 .543 77.231 0 139.84-22.672 139.84-87.611 0-.429-.023-.864-.028-1.295z" fill="#e8e5e8"/></g></g></g><path d="m239.043 279.304 6.786 9.326c5.023 6.903 15.318 6.903 20.341 0l6.786-9.326 2.419-3.325c6.049-8.314.111-19.979-10.171-19.979h-9.204-9.206c-10.282 0-16.22 11.665-10.171 19.979z" fill="#f9b83f"/></g><g><path d="m437.02 74.98c-48.353-48.351-112.64-74.98-181.02-74.98-49.211 0-97.01 14.003-138.229 40.495-3.484 2.239-4.494 6.879-2.254 10.364s6.88 4.494 10.364 2.254c36.698-23.586 78.944-36.646 122.619-37.99v25.021c-83.983 2.882-155.943 53.927-189.052 126.324l-23.174-9.599c15.049-33.353 37.709-63.238 66.858-87.183 3.201-2.629 3.664-7.355 1.035-10.556-2.629-3.2-7.355-3.664-10.556-1.035-59.491 48.87-93.611 121.004-93.611 197.905 0 68.38 26.629 132.667 74.98 181.02 48.353 48.351 112.64 74.98 181.02 74.98s132.667-26.629 181.02-74.98c48.351-48.353 74.98-112.64 74.98-181.02s-26.629-132.667-74.98-181.02zm44.503 266.317-23.218-9.618c8.009-21.34 12.73-44.272 13.55-68.179h25.017c-.818 26.971-6.05 53.179-15.349 77.797zm-9.667-92.797c-.82-23.907-5.541-46.839-13.55-68.179l23.218-9.617c9.299 24.618 14.53 50.826 15.349 77.797h-25.017zm-126.324-189.052 9.623-23.231c23.983 10.833 46.214 25.665 65.864 44.157l-17.761 17.761c-16.935-15.808-36.402-28.935-57.726-38.687zm-82.032-19.303v-25.018c26.971.819 53.178 6.05 77.797 15.349l-9.617 23.218c-21.341-8.008-44.272-12.729-68.18-13.549zm168.126 50.836c18.492 19.65 33.325 41.881 44.157 65.864l-23.231 9.623c-9.752-21.324-22.879-40.791-38.687-57.726zm-175.626-35.981c55.397 0 105.632 22.528 142.025 58.902.012.012.022.026.034.038s.026.022.038.034c36.375 36.394 58.903 86.629 58.903 142.026 0 59.394-25.903 112.844-66.995 149.673-6.347-17.023-14.828-32.738-25.335-46.902 51.616-32.167 43.847-97.345 17.378-143.796 6.331-10.746 11.231-25.983 13.375-41.908 1.546-11.489 2.756-31.868-6.513-39.266-8.681-6.929-23.723-3.841-34.812-.032-11.414 3.92-23.404 10.262-33.032 17.392-20.649-12.446-43.037-18.998-65.066-18.998-22.328 0-44.988 6.715-65.858 19.472-20.511-15.384-54.502-28.973-68.456-17.834-9.421 7.52-8.054 28.334-6.401 40.072 2.297 16.309 7.418 31.674 13.987 42.292-25.918 46.29-33.194 110.712 18.019 142.675-10.487 14.154-18.961 29.845-25.296 46.832-2.74-2.455-5.419-4.976-8.02-7.576-.012-.012-.022-.026-.034-.038s-.026-.022-.038-.034c-36.375-36.392-58.903-86.627-58.903-142.024 0-110.832 90.168-201 201-201zm-165.019 376.626 17.761-17.761c16.993 15.861 36.586 29.019 57.726 38.687l-9.623 23.231c-23.983-10.833-46.214-25.665-65.864-44.157zm-54.764-76.471 23.231-9.623c9.752 21.324 22.879 40.79 38.687 57.726l-17.761 17.761c-18.492-19.65-33.324-41.881-44.157-65.864zm-21.09-91.655h25.017c.82 23.907 5.541 46.839 13.55 68.179l-23.218 9.617c-9.298-24.618-14.53-50.825-15.349-77.796zm145.551 102.48c5.108 2.312 10.582 4.378 16.412 6.202-8.957 13.792-19.15 32.524-26.514 54.879-5.62-3.476-11.055-7.222-16.29-11.218 6.248-18.304 15.103-35.04 26.392-49.863zm19.643 92.325c21.34 8.009 44.272 12.73 68.179 13.55v25.017c-26.971-.819-53.178-6.05-77.797-15.349zm75.679-1.305c-33.176 0-64.496-8.086-92.105-22.38 7.67-24.527 19.153-44.634 28.514-58.389 25.452 5.613 51.929 6.786 77.916 5.841 4.139-.15 7.373-3.628 7.223-7.768-.15-4.139-3.632-7.374-7.768-7.223-26.758.971-52.912-1.188-79.093-6.649-11.395-2.85-21.431-6.572-30.031-11.171-24.486-13.097-36.586-32.636-36.977-59.691 2.08-4.947 12.261-25.251 41.334-31.362 25.126-5.282 53.215 3.889 67.965 25.509 3.865 5.97 8.731 13.437 15.521 16.153v20.091c0 3.839-3.124 6.962-6.962 6.962s-6.962-3.124-6.962-6.962c0-4.142-3.358-7.5-7.5-7.5s-7.5 3.358-7.5 7.5c0 12.11 9.852 21.962 21.962 21.962 5.536 0 10.596-2.063 14.462-5.455 3.867 3.392 8.927 5.455 14.462 5.455 12.11 0 21.963-9.852 21.963-21.962 0-4.142-3.358-7.5-7.5-7.5s-7.5 3.358-7.5 7.5c0 3.839-3.124 6.962-6.963 6.962s-6.962-3.124-6.962-6.962v-20.091c8.038-3.216 13.087-12.807 17.941-19.479 14.296-19.648 42.124-27.015 65.105-22.185 27.175 5.713 38.637 24.228 41.784 30.454-.105 22.329-8.037 39.449-24.257 52.317-14.975 11.879-36.94 19.852-65.287 23.696-4.104.557-6.981 4.335-6.424 8.44s4.335 6.985 8.44 6.424c6.167-.836 12.489-1.93 18.82-3.341 9.608 13.999 21.269 34.28 28.532 58.397-28.386 14.706-60.183 22.407-92.153 22.407zm-111.897-245.674c-6.127-8.119-11.399-22.729-13.756-38.128-2.567-16.767-.564-25.962.791-27.74 1.3-.854 7.476-2.031 20.83 2.62 11.747 4.09 24.024 10.997 32.842 18.476 2.547 2.161 6.214 2.376 8.995.531 19.658-13.032 41.165-19.921 62.196-19.921 21.042 0 41.712 6.537 61.438 19.429 2.757 1.802 6.366 1.594 8.898-.511 8.871-7.377 21.071-14.152 32.634-18.125 13.131-4.51 19.207-3.339 20.489-2.499 1.319 1.733 3.297 10.687.899 27.019-2.209 15.041-7.277 29.593-13.227 37.979-1.728 2.434-1.847 5.661-.304 8.216 8.207 13.593 14.212 27.786 17.765 41.643-8.195-7-19.539-13.545-34.961-16.787-31.174-6.549-53.895 4.693-67.15 14.826-3.605-6.108-10.111-9.854-17.276-9.854h-18.411c-7.256 0-13.832 3.845-17.408 10.092-13.21-10.195-36.039-21.668-67.459-15.063-15.302 3.217-26.466 9.701-34.484 16.647 3.47-13.474 9.255-27.269 17.12-40.499 1.557-2.619 1.374-5.919-.461-8.351zm116.003 72.891c-2.737 2.787-5.475 2.787-8.213 0-3.069-4.217-6.137-8.434-9.206-12.651-2.427-3.335-.018-8.066 4.106-8.066h18.411c4.598 0 6.087 4.824 3.721 7.993-3.051 4.089-5.705 8.615-8.819 12.724zm101.39 142.799c-7.072-22.07-17.392-40.919-26.56-54.908 5.565-1.756 11.04-3.807 16.321-6.199 11.314 14.833 20.193 31.585 26.456 49.934-5.211 3.979-10.622 7.709-16.217 11.173zm-307.801-246.695c-8.009 21.34-12.73 44.272-13.55 68.179h-25.02c.828-26.941 6.102-53.169 15.399-77.778zm372.718 246.092c-43.746 43.746-101.351 68.59-162.913 70.46v-25.017c81.068-2.781 155.253-52.418 189.052-126.323l23.231 9.623c-11.835 26.2-28.432 50.319-49.37 71.257z"/><path d="m327.189 189.504c3.264 2.548 7.978 1.967 10.527-1.297 4.292-5.499 13.061-10.68 17.016-11.493.171 4.034-2.727 13.798-7.019 19.296-2.549 3.265-1.968 7.979 1.297 10.527 3.223 2.515 8.013 1.924 10.527-1.297 3.626-4.645 7.107-12.092 8.87-18.971 3.306-12.906-.375-19.03-4.044-21.894-11.817-9.226-32.309 6.708-38.471 14.602-2.549 3.265-1.968 7.978 1.297 10.527z"/><path d="m156.85 208.125c5.78 0 9.545-7.455 5.907-12.116-4.292-5.498-7.189-15.262-7.019-19.296 3.955.813 12.724 5.995 17.015 11.493 2.549 3.265 7.261 3.847 10.527 1.297 3.265-2.548 3.846-7.262 1.297-10.527-3.625-4.645-10.004-9.831-16.25-13.21-11.718-6.342-18.551-4.257-22.22-1.392-3.67 2.864-7.351 8.988-4.044 21.894 1.763 6.879 5.244 14.326 8.87 18.971 1.479 1.896 3.686 2.886 5.917 2.886z"/></g></g></svg>