<svg id="_x30_1_Zorro" enable-background="new 0 0 512 512" height="512" viewBox="0 0 512 512" width="512" xmlns="http://www.w3.org/2000/svg"><switch><g><g><g><path d="m485.525 238.79c-19.236 3.057-35.16 11.147-47.581 22.803-3.439 3.249-6.624 6.688-9.491 10.446-15.733 20.064-23.758 47.134-23.758 76.179 0 87.709-69.874 141.595-153.06 141.595h-85.479l90.511-97.072c0-96.817 66.689-176.691 154.079-189.302 6.178-.892 12.42-1.465 18.79-1.656 1.847-.128 3.631-.128 5.478-.128 23.376 0 44.268 4.905 56.434 14.459 8.854 6.943 5.224 20.956-5.923 22.676z" fill="#5e6554"/><path d="m251.636 497.313h-85.479c-2.986 0-5.687-1.771-6.878-4.509-1.19-2.738-.644-5.922 1.393-8.105l88.517-94.934c.657-47.252 16.915-92.608 45.948-128.008 29.523-35.995 70.199-59.342 114.539-65.741 6.564-.948 13.123-1.528 19.494-1.725 2.05-.135 3.979-.135 5.845-.135 26.191 0 47.878 5.704 61.066 16.061 6.489 5.089 9.233 13.179 7.158 21.109-2.071 7.914-8.413 13.612-16.554 14.874-17.081 2.718-31.754 9.737-43.608 20.862-3.35 3.163-6.188 6.284-8.659 9.525-.021.026-.041.054-.062.08-14.291 18.225-22.161 43.635-22.161 71.551 0 44.05-16.561 81.855-47.89 109.327-29.246 25.645-69.259 39.768-112.669 39.768zm-68.232-15h68.232c72.334 0 145.559-46.061 145.559-134.095 0-31.234 8.995-59.917 25.325-80.767 2.963-3.88 6.324-7.581 10.274-11.311 14.105-13.238 31.444-21.562 51.553-24.758.011-.001.022-.003.033-.005 3.14-.485 4.085-2.854 4.346-3.85.263-1.002.602-3.544-1.906-5.511-10.409-8.174-29.29-12.861-51.806-12.861-1.734 0-3.372 0-4.963.11-.097.006-.193.011-.29.014-5.934.178-11.803.696-17.942 1.583-84.176 12.147-147.652 90.339-147.652 181.88 0 1.898-.72 3.727-2.015 5.114zm245.05-210.274h.01z"/></g><g><path d="m485.525 238.79c-19.236 3.057-35.16 11.147-47.581 22.803-3.439 3.249-6.624 6.688-9.491 10.446-16.816-23.504-20.51-47.198-17.707-68.6 6.178-.892 12.42-1.465 18.79-1.656 1.847-.128 3.631-.128 5.478-.128 23.376 0 44.268 4.905 56.434 14.459 8.854 6.943 5.224 20.956-5.923 22.676z" fill="#f8f9fa"/><path d="m428.454 279.539c-.038 0-.076 0-.114-.001-2.38-.036-4.601-1.199-5.985-3.135-16.112-22.522-22.52-47.398-19.044-73.939.437-3.333 3.037-5.968 6.364-6.449 6.565-.948 13.123-1.529 19.494-1.726 2.05-.135 3.979-.135 5.846-.135 26.191 0 47.878 5.704 61.066 16.061 6.489 5.089 9.233 13.179 7.158 21.109-2.071 7.914-8.413 13.612-16.554 14.874-17.081 2.718-31.754 9.737-43.608 20.862-3.35 3.163-6.188 6.284-8.659 9.525-1.42 1.865-3.626 2.954-5.964 2.954zm-10.841-69.412c-1.193 17.431 2.73 34.009 11.7 49.452 1.108-1.147 2.268-2.291 3.481-3.438 14.105-13.238 31.444-21.562 51.553-24.758.011-.001.022-.003.033-.005 3.14-.484 4.085-2.854 4.346-3.85.263-1.002.602-3.544-1.906-5.511-10.409-8.174-29.29-12.861-51.806-12.861-1.734 0-3.372 0-4.963.11-.097.006-.193.011-.29.014-4.043.121-8.058.4-12.148.847z"/></g><g><path d="m224.438 489.813h-116.563c-98.791 0-91.785-111.212-5.096-230.513 6.752-9.363 14.013-18.79 21.784-28.154h83.186c7.771 9.363 15.032 18.79 21.784 28.154 86.69 119.301 93.696 230.513-5.095 230.513z" fill="#5e6554"/><path d="m224.438 497.313h-116.563c-43.103 0-62.351-20.02-70.907-36.815-22.794-44.739.099-123.524 59.744-205.607 7.034-9.755 14.468-19.363 22.08-28.535 1.425-1.717 3.54-2.71 5.771-2.71h83.187c2.231 0 4.347.993 5.771 2.71 7.611 9.172 15.045 18.779 22.096 28.557 59.63 82.062 82.522 160.847 59.728 205.586-8.556 16.795-27.803 36.814-70.907 36.814zm-96.337-258.667c-6.616 8.087-13.078 16.497-19.238 25.041-55.476 76.345-78.444 150.916-58.53 190.003 9.677 18.993 29.037 28.623 57.542 28.623h116.563c28.505 0 47.865-9.63 57.542-28.623 19.913-39.086-3.055-113.658-58.514-189.981-6.175-8.564-12.638-16.976-19.254-25.063z"/></g><g><path d="m199.205 113.349s0-62.683 49.756-102.294c8.223-6.547 20.362-3.695 25.259 5.605 15.72 29.853 39.215 95.618-19.932 150.077z" fill="#5e6554"/><path d="m254.29 174.237c-1.885 0-3.768-.707-5.22-2.114l-55.084-53.388c-1.458-1.413-2.28-3.356-2.28-5.386 0-2.707.598-66.774 52.585-108.161 5.579-4.44 12.803-6.142 19.831-4.668 7.199 1.511 13.299 6.121 16.735 12.647 8.397 15.947 18.505 40.895 18.973 69.182.567 34.415-13.045 64.664-40.46 89.906-1.438 1.323-3.26 1.982-5.08 1.982zm-47.446-63.93 47.448 45.988c47.941-48.942 29.198-105.934 13.294-136.14-1.349-2.559-3.733-4.365-6.545-4.956-2.679-.562-5.307.051-7.407 1.724-40.16 31.97-45.959 80.775-46.79 93.384z"/></g><g><path d="m227.136 102.964c2.093-13.963 8.417-39.452 27.403-60.391.671-.74 1.945-.536 2.322.39 10.209 25.081 14.382 55.834-4.277 84.671z" fill="#dee2e6"/><path d="m252.583 135.134c-1.938 0-3.813-.751-5.22-2.115l-25.448-24.67c-1.738-1.684-2.556-4.104-2.197-6.497 2.148-14.336 8.808-41.756 29.264-64.317 2.062-2.274 5.108-3.315 8.15-2.774 3.028.536 5.524 2.546 6.676 5.377 13.724 33.713 12.02 65.379-4.929 91.57-1.219 1.885-3.218 3.124-5.448 3.378-.283.033-.566.048-.848.048zm-17.402-34.817 15.661 15.182c8.63-17.741 9.526-37.755 2.671-59.718-11.378 15.903-16.254 33.221-18.332 44.536z"/></g><g><path d="m133.108 113.349s0-62.683-49.756-102.294c-8.223-6.547-20.362-3.695-25.259 5.605-15.72 29.853-39.215 95.618 19.932 150.077z" fill="#5e6554"/><path d="m78.023 174.237c-1.82 0-3.642-.659-5.08-1.982-27.416-25.242-41.028-55.491-40.46-89.906.467-28.288 10.575-53.235 18.972-69.182 3.438-6.528 9.538-11.137 16.737-12.648 7.023-1.474 14.251.228 19.831 4.668 51.987 41.387 52.585 105.454 52.585 108.161 0 2.03-.823 3.973-2.28 5.386l-55.084 53.388c-1.453 1.408-3.336 2.115-5.221 2.115zm-4.823-159.241c-.635 0-1.28.067-1.927.203-2.812.59-5.197 2.396-6.545 4.956-15.906 30.205-34.648 87.198 13.294 136.14l47.448-45.988c-.831-12.609-6.63-61.413-46.79-93.384-1.593-1.268-3.49-1.927-5.48-1.927zm59.908 98.353h.01zm0 0h.01z"/></g><g><path d="m105.177 102.964c-2.093-13.963-8.417-39.452-27.403-60.391-.671-.74-1.945-.536-2.322.39-10.209 25.081-14.382 55.834 4.277 84.671z" fill="#dee2e6"/><path d="m79.73 135.134c-.282 0-.565-.016-.848-.048-2.23-.254-4.229-1.493-5.449-3.377-16.947-26.19-18.651-57.856-4.928-91.573 1.153-2.831 3.648-4.839 6.675-5.375 3.039-.538 6.086.5 8.149 2.774 20.456 22.559 27.116 49.98 29.265 64.317.359 2.393-.459 4.813-2.197 6.497l-25.448 24.67c-1.406 1.364-3.282 2.115-5.219 2.115zm-.93-79.352c-6.854 21.963-5.959 41.978 2.671 59.718l15.661-15.182c-2.079-11.318-6.954-28.635-18.332-44.536z"/></g><g><path d="m242.845 278.472c-.23 18.44-4.579 39.382-17.528 59.62-2.169 3.391-6.845 4.084-9.795 1.345l-1.001-.929c-3.398-3.154-8.937-1.777-10.361 2.635-3.761 11.656-12.407 31.158-30.658 44.61-4.327 3.19-10.367 3.19-14.694 0-18.25-13.453-26.896-32.955-30.658-44.61-1.424-4.412-6.963-5.789-10.361-2.635l-1.001.929c-2.95 2.739-7.626 2.046-9.795-1.345-12.948-20.238-17.297-41.18-17.528-59.62 4.204-6.37 8.662-12.739 13.312-19.172 6.752-9.363 14.013-18.79 21.784-28.154h83.186c7.771 9.363 15.032 18.79 21.784 28.154 4.652 6.433 9.111 12.802 13.314 19.172z" fill="#f8f9fa"/><path d="m166.157 395.631c-4.162 0-8.324-1.28-11.797-3.84-19.28-14.212-28.662-34.615-32.762-46.59-2.978 2.609-6.91 3.819-10.861 3.313-4.135-.526-7.802-2.853-10.059-6.38-12.125-18.951-18.419-40.338-18.71-63.569-.019-1.501.413-2.972 1.24-4.225 3.908-5.923 8.322-12.279 13.493-19.435 7.045-9.771 14.48-19.378 22.091-28.55 1.425-1.717 3.541-2.71 5.771-2.71h83.187c2.231 0 4.347.994 5.771 2.71 7.611 9.171 15.045 18.779 22.096 28.557 5.161 7.141 9.575 13.498 13.488 19.428.827 1.252 1.258 2.724 1.24 4.225-.291 23.231-6.585 44.617-18.71 63.569-2.257 3.527-5.924 5.854-10.059 6.38-3.945.506-7.882-.703-10.861-3.314-4.1 11.976-13.48 32.378-32.761 46.591-3.473 2.559-7.635 3.84-11.797 3.84zm-44.033-66.341c1.175 0 2.36.149 3.531.454 4.58 1.195 8.182 4.596 9.634 9.096 3.204 9.928 11.099 28.44 27.97 40.877 1.679 1.236 4.115 1.238 5.794 0 16.872-12.438 24.766-30.949 27.969-40.877 1.453-4.5 5.054-7.9 9.634-9.096 4.616-1.203 9.464.017 12.967 3.268l.02.02c9.781-15.68 15.042-33.282 15.651-52.37-3.473-5.199-7.362-10.772-11.84-16.967-6.165-8.55-12.627-16.96-19.243-25.047h-76.111c-6.616 8.087-13.078 16.497-19.238 25.041-4.486 6.206-8.376 11.78-11.845 16.973.609 19.089 5.869 36.691 15.651 52.371l.021-.021c2.614-2.427 5.978-3.722 9.435-3.722z"/></g><g><path d="m316.732 203.567c-30.447 57.644-95.161 82.039-150.576 82.039s-120.129-24.395-150.575-82.039c49.682-49.619 61.147-127.391 150.575-127.391s100.894 77.772 150.576 127.391z" fill="#5e6554"/><path d="m166.157 293.106c-30.409 0-61.652-7.167-87.975-20.18-30.501-15.079-54.441-37.852-69.233-65.857-1.537-2.911-.997-6.483 1.332-8.81 14.619-14.6 26.074-32.144 37.152-49.11 25.833-39.564 52.545-80.474 118.724-80.474s92.891 40.91 118.724 80.474c11.078 16.966 22.533 34.51 37.151 49.11 2.329 2.326 2.869 5.899 1.332 8.81-14.792 28.004-38.732 50.777-69.233 65.857-26.322 13.013-57.565 20.18-87.974 20.18zm-141.325-88.314c31.325 53.939 93.05 73.314 141.325 73.314s109.999-19.375 141.324-73.314c-13.803-14.732-24.645-31.337-35.159-47.442-25.813-39.533-48.106-73.674-106.164-73.674s-80.353 34.141-106.165 73.674c-10.515 16.104-21.358 32.709-35.161 47.442z"/></g><g><path d="m316.732 203.567c-30.447 57.644-95.161 82.039-150.576 82.039 0 0 12.612-82.039 150.576-82.039z" fill="#f8f9fa"/><path d="m166.157 293.106c-2.188 0-4.267-.956-5.692-2.616s-2.054-3.86-1.721-6.023c.144-.936 3.776-23.179 25.647-45.169 19.615-19.721 58.497-43.231 132.342-43.231 2.629 0 5.066 1.376 6.424 3.628 1.356 2.251 1.436 5.05.208 7.375-14.792 28.004-38.732 50.777-69.233 65.857-26.323 13.012-57.566 20.179-87.975 20.179zm137.26-81.761c-47.423 2.018-84.467 14.983-107.657 37.8-10.827 10.653-16.526 21.409-19.424 28.678 44.4-2.444 97.041-21.038 127.081-66.478z"/></g><g><path d="m166.156 285.606c-55.415 0-120.129-24.395-150.576-82.039 137.965 0 150.576 82.039 150.576 82.039z" fill="#f8f9fa"/><path d="m166.157 293.106c-30.409 0-61.652-7.167-87.975-20.18-30.501-15.079-54.441-37.852-69.233-65.857-1.228-2.325-1.149-5.123.208-7.375s3.794-3.628 6.423-3.628c73.845 0 112.728 23.509 132.342 43.231 21.871 21.99 25.503 44.233 25.647 45.169.333 2.163-.296 4.363-1.721 6.023-1.424 1.661-3.504 2.617-5.691 2.617zm-137.261-81.761c30.04 45.44 82.681 64.034 127.082 66.479-2.897-7.27-8.597-18.025-19.424-28.678-23.192-22.818-60.235-35.783-107.658-37.801z"/></g><g><path d="m166.156 243.498c-43.953 0-18.178 42.08 0 42.08s43.953-42.08 0-42.08z" fill="#343a40"/><path d="m166.157 293.078c-14.827 0-31.729-18.293-31.729-34.34 0-6.844 3.018-12.806 8.496-16.788 5.436-3.95 13.252-5.952 23.232-5.952s17.797 2.002 23.232 5.952c5.479 3.981 8.496 9.943 8.496 16.788.001 16.047-16.901 34.34-31.727 34.34zm0-42.08c-8.846 0-12.828 1.934-14.415 3.087-1.622 1.179-2.314 2.57-2.314 4.653 0 8.348 10.522 19.34 16.729 19.34s16.729-10.992 16.729-19.34c0-2.083-.692-3.474-2.314-4.653-1.587-1.153-5.57-3.087-14.415-3.087z"/></g><g><path d="m83.15 380.82 20.119 120.495h40.468v-72.967" fill="#5e6554"/><path d="m143.737 508.815h-40.468c-3.666 0-6.794-2.649-7.397-6.265l-20.12-120.495c-.682-4.086 2.077-7.951 6.162-8.633 4.086-.689 7.95 2.077 8.633 6.162l19.073 114.231h26.617v-65.468c0-4.143 3.358-7.5 7.5-7.5s7.5 3.357 7.5 7.5v72.968c0 4.143-3.358 7.5-7.5 7.5z"/></g><g><path d="m249.163 380.82-20.119 120.495h-40.468v-72.967" fill="#5e6554"/><path d="m229.044 508.815h-40.468c-4.142 0-7.5-3.357-7.5-7.5v-72.968c0-4.143 3.358-7.5 7.5-7.5s7.5 3.357 7.5 7.5v65.468h26.616l19.073-114.231c.682-4.085 4.54-6.852 8.633-6.162 4.085.682 6.844 4.547 6.162 8.633l-20.119 120.495c-.603 3.616-3.732 6.265-7.397 6.265z"/></g><g><circle cx="123.068" cy="183.187" fill="#343a40" r="7.962"/><path d="m123.068 198.649c-8.526 0-15.462-6.936-15.462-15.462s6.936-15.462 15.462-15.462 15.462 6.936 15.462 15.462-6.936 15.462-15.462 15.462zm0-15.924c-.255 0-.462.207-.462.462s.207.462.462.462.462-.207.462-.462-.207-.462-.462-.462z"/></g><g><circle cx="209.245" cy="183.187" fill="#343a40" r="7.962"/><path d="m209.245 198.649c-8.526 0-15.462-6.936-15.462-15.462s6.936-15.462 15.462-15.462 15.462 6.936 15.462 15.462-6.936 15.462-15.462 15.462zm0-15.924c-.255 0-.462.207-.462.462s.207.462.462.462.462-.207.462-.462-.207-.462-.462-.462z"/></g><g><path d="m142.88 504.5h-42.8c-8.334 0-13.636-9.301-9.044-16.255 6.169-9.344 17.498-15.592 30.444-15.592s24.275 6.248 30.444 15.592c4.591 6.954-.711 16.255-9.044 16.255z" fill="#f8f9fa"/><path d="m142.88 512h-42.8c-6.713 0-12.87-3.693-16.068-9.639-3.172-5.896-2.886-12.718.766-18.249 7.837-11.872 21.558-18.96 36.702-18.96 15.145 0 28.865 7.088 36.703 18.961 3.651 5.53 3.938 12.352.765 18.248-3.199 5.946-9.356 9.639-16.068 9.639zm-21.4-31.848c-9.939 0-19.207 4.685-24.184 12.225-.739 1.119-.448 2.183-.074 2.878.22.409 1.077 1.745 2.859 1.745h42.799c1.781 0 2.639-1.336 2.859-1.745.374-.695.665-1.759-.074-2.877-4.978-7.541-14.245-12.226-24.185-12.226z"/></g><g><path d="m189.433 504.5h42.8c8.334 0 13.636-9.301 9.044-16.255-6.169-9.344-17.498-15.592-30.444-15.592s-24.275 6.248-30.444 15.592c-4.591 6.954.711 16.255 9.044 16.255z" fill="#f8f9fa"/><path d="m232.233 512h-42.799c-6.713 0-12.87-3.693-16.068-9.639-3.172-5.896-2.886-12.718.766-18.249 7.837-11.872 21.558-18.96 36.702-18.96 15.145 0 28.865 7.088 36.703 18.961 3.651 5.53 3.938 12.352.765 18.248-3.2 5.946-9.357 9.639-16.069 9.639zm-21.4-31.848c-9.939 0-19.207 4.685-24.184 12.225-.739 1.119-.448 2.183-.074 2.878.22.409 1.078 1.745 2.859 1.745h42.799c1.781 0 2.639-1.336 2.859-1.745.374-.695.665-1.759-.074-2.877-4.978-7.541-14.245-12.226-24.185-12.226z"/></g></g></g></switch></svg>
