<svg id="Layer_1" enable-background="new 0 0 64 64" viewBox="0 0 64 64" xmlns="http://www.w3.org/2000/svg"><g><path d="m63.03 10.35h-48.95c-.53 0-.97.44-.97.97v5.84h-5.59c-.53 0-.97.43-.97.97v5.84h-5.58c-.53-.01-.97.43-.97.96v27.75c0 .53.44.97.97.97h48.95c.53 0 .97-.44.97-.97v-5.85h5.59c.53 0 .97-.44.97-.97v-5.83h5.59c.53 0 .97-.44.97-.97v-27.74c-.01-.54-.45-.97-.98-.97zm-14.08 41.36h-47.01v-25.81h47.01zm6.56-6.81h-4.62v-19.97c0-.53-.44-.97-.97-.97h-41.43v-4.87h47.01v25.81zm6.55-6.8h-4.62v-19.98c0-.54-.44-.97-.97-.97h-41.42v-4.87h47.01z"/><path d="m62.06 12.29v25.81h-4.62v-19.98c0-.54-.44-.97-.97-.97h-41.42v-4.87h47.01z" fill="#01a755"/><path d="m55.51 19.09v25.8h-4.62v-19.96c0-.53-.44-.97-.97-.97h-41.43v-4.87z" fill="#00ba66"/><path d="m1.94 25.9v25.81h47.01v-25.81zm44.8 18.84c0 .53-.44.97-.97.97-2.14 0-3.88 1.74-3.88 3.88 0 .53-.44.97-.97.97h-30.95c-.53 0-.97-.44-.97-.97 0-2.14-1.75-3.88-3.88-3.88-.53 0-.97-.44-.97-.97v-11.87c0-.53.44-.97.97-.97 2.13 0 3.88-1.73 3.88-3.88 0-.53.44-.97.97-.97h30.95c.53 0 .97.44.97.97 0 2.14 1.74 3.88 3.88 3.88.53 0 .97.44.97.97z" fill="#01a755"/><path d="m45.77 31.9c-2.14 0-3.88-1.74-3.88-3.88 0-.53-.44-.97-.97-.97h-30.95c-.53 0-.97.44-.97.97 0 2.14-1.75 3.88-3.88 3.88-.53 0-.97.44-.97.97v11.87c0 .53.44.97.97.97 2.13 0 3.88 1.74 3.88 3.88 0 .53.44.97.97.97h30.95c.53 0 .97-.44.97-.97 0-2.14 1.74-3.88 3.88-3.88.53 0 .97-.44.97-.97v-11.87c0-.53-.44-.97-.97-.97zm-.97 11.95c-2.43.42-4.35 2.34-4.77 4.77h-29.18c-.41-2.43-2.33-4.35-4.76-4.77v-10.09c2.43-.41 4.35-2.34 4.76-4.77h29.18c.42 2.43 2.34 4.36 4.77 4.77z"/><path d="m40.03 28.99h-29.18c-.41 2.43-2.33 4.36-4.76 4.77v10.08c2.43.42 4.35 2.34 4.76 4.77h29.18c.42-2.43 2.34-4.35 4.77-4.77v-10.08c-2.43-.4-4.35-2.33-4.77-4.77zm-14.59 18.21c-4.63 0-8.4-3.77-8.4-8.4s3.77-8.4 8.4-8.4 8.4 3.77 8.4 8.4-3.77 8.4-8.4 8.4z" fill="#00ba66"/><path d="m25.44 30.41c-4.63 0-8.4 3.77-8.4 8.4s3.77 8.4 8.4 8.4 8.4-3.77 8.4-8.4-3.77-8.4-8.4-8.4zm0 14.86c-3.56 0-6.46-2.9-6.46-6.46s2.9-6.46 6.46-6.46 6.46 2.9 6.46 6.46-2.9 6.46-6.46 6.46z"/><path d="m25.44 32.35c-3.56 0-6.46 2.9-6.46 6.46s2.9 6.46 6.46 6.46 6.46-2.9 6.46-6.46-2.9-6.46-6.46-6.46zm.98 11.31v.4c0 .53-.44.97-.97.97s-.97-.44-.97-.97v-.39c-1.21-.33-2.14-1.23-2.35-2.41-.09-.52.26-1.03.8-1.12.53-.09 1.03.26 1.12.8.09.52.71.93 1.41.93.77 0 1.41-.48 1.41-1.07 0-.71-.48-1.08-1.42-1.08-1.27.06-2.05-.42-2.47-.82-.56-.54-.87-1.32-.87-2.18 0-1.36 1.01-2.49 2.39-2.87v-.39c0-.53.44-.97.97-.97s.97.44.97.97v.39c1.19.32 2.11 1.21 2.33 2.37.1.52-.24 1.03-.78 1.12-.52.11-1.03-.24-1.12-.77-.11-.53-.7-.92-1.4-.92 0 0 0 0-.01 0-.76 0-1.41.48-1.41 1.07 0 .23.05.56.28.79.27.25.73.3 1.07.28h.05c2.33 0 3.36 1.51 3.36 3.02-.01 1.33-1.02 2.48-2.39 2.85z" fill="#6ed6a2"/><path d="m28.8 40.8c0 1.35-1.01 2.49-2.38 2.86v.4c0 .53-.44.97-.97.97s-.97-.44-.97-.97v-.39c-1.21-.33-2.14-1.23-2.35-2.41-.09-.52.26-1.03.8-1.12.53-.09 1.03.26 1.12.8.09.52.71.93 1.41.93.77 0 1.41-.48 1.41-1.07 0-.71-.48-1.08-1.42-1.08-1.27.06-2.05-.42-2.47-.82-.56-.54-.87-1.32-.87-2.18 0-1.36 1.01-2.49 2.39-2.87v-.39c0-.53.44-.97.97-.97s.97.44.97.97v.39c1.19.32 2.11 1.21 2.33 2.37.1.52-.24 1.03-.78 1.12-.52.11-1.03-.24-1.12-.77-.11-.53-.7-.92-1.4-.92 0 0 0 0-.01 0-.76 0-1.41.48-1.41 1.07 0 .23.05.56.28.79.27.25.73.3 1.07.28h.05c2.31-.01 3.35 1.5 3.35 3.01z"/></g></svg>