<svg id="Layer_3" enable-background="new 0 0 64 64" height="512" viewBox="0 0 64 64" width="512" xmlns="http://www.w3.org/2000/svg"><g><path d="m15 27h34v16h-34z" fill="#6bb566"/><path d="m17 27v5.657c1.004.376 1.952.904 2.801 1.584l5.762 4.61c.685.548 1.153 1.31 1.342 2.15h22.095v-14.001z" fill="#89c683"/><path d="m43 27c0 3.314 2.686 6 6 6v-6z" fill="#dcdcdc"/><g><path d="m39 34h4v2h-4z" fill="#fff"/></g><path d="m43 43c0-3.314 2.686-6 6-6v6z" fill="#dcdcdc"/><path d="m21 27c0 3.314-2.686 6-6 6v-6z" fill="#c8c8c8"/><circle cx="32" cy="35" fill="#fff" r="4"/><g><path d="m21 34h4v2h-4z" fill="#fff"/></g><path d="m1 36c1.973 0 3.919-.459 5.683-1.342l1.158-.579c1.42-.709 2.985-1.079 4.573-1.079 2.322 0 4.574.79 6.387 2.24l5.762 4.61c.908.727 1.437 1.827 1.437 2.991 0 .756-.224 1.495-.643 2.124l-1.357 2.035 16.724 2.641c1.311.207 2.276 1.337 2.276 2.664 0 1.489-1.207 2.695-2.696 2.695h-15.305c-2.63 0-5.224-.612-7.576-1.788l-5.74-2.87c-1.764-.883-3.71-1.342-5.683-1.342h-5z" fill="#eeb8ab"/><path d="m40.724 49.641-16.724-2.641 1.357-2.035c.419-.629.643-1.368.643-2.124 0-1.163-.529-2.264-1.437-2.99l-5.762-4.61c-1.813-1.451-4.066-2.241-6.387-2.241-1.587 0-3.153.37-4.572 1.079l-1.158.579c-1.465.732-3.056 1.155-4.683 1.284v11.058h5c1.973 0 3.919.459 5.683 1.342l5.74 2.87c2.352 1.176 4.946 1.788 7.576 1.788h15.304c.642 0 1.224-.234 1.687-.608.001-.03.009-.057.009-.087 0-1.327-.966-2.457-2.276-2.664z" fill="#ffe1d3"/><path d="m18.5 38.592h2v10.817h-2z" fill="#eeb8ab" transform="matrix(.555 -.832 .832 .555 -27.927 35.818)"/><path d="m21 27h-4v5.651c2.329-.824 4-3.04 4-5.651z" fill="#dcdcdc"/><g><path d="m56 35h6c0-12.703-10.297-23-23-23h-5v-3l-12 6 12 6v-3h5c9.389 0 17 7.611 17 17z" fill="#dd4946"/></g><path d="m39 15h-17l12 6v-3h5c9.389 0 17 7.611 17 17h3c0-11.046-8.954-20-20-20z" fill="#c53330"/><path d="m26.848 44h22.152c.553 0 1-.448 1-1v-16c0-.552-.447-1-1-1h-34c-.553 0-1 .448-1 1v5.122c-.524-.075-1.053-.122-1.586-.122-1.733 0-3.469.41-5.02 1.185l-1.158.579c-1.617.809-3.427 1.236-5.235 1.236v2c2.116 0 4.236-.5 6.13-1.447l1.158-.579c3.144-1.57 7.146-1.145 9.887 1.047l5.763 4.61c.675.541 1.062 1.346 1.062 2.209 0 .561-.164 1.104-.476 1.57l-.802 1.203-8.168-5.445-1.109 1.664 9 6c.118.079.254.133.398.156l16.724 2.641c.83.13 1.432.835 1.432 1.676 0 .934-.761 1.695-1.696 1.695h-15.304c-2.462 0-4.927-.582-7.129-1.683l-5.74-2.87c-1.894-.947-4.014-1.447-6.13-1.447h-5v2h5c1.808 0 3.618.427 5.235 1.236l5.74 2.87c2.479 1.239 5.253 1.894 8.024 1.894h15.304c2.038 0 3.696-1.658 3.696-3.695 0-1.831-1.312-3.366-3.119-3.652l-15.182-2.397.49-.736c.312-.467.526-.983.659-1.52zm17.253-2c.399-1.956 1.943-3.5 3.899-3.899v3.899zm3.899-10.101c-1.956-.399-3.5-1.943-3.899-3.899h3.899zm-28.101-3.899c-.399 1.956-1.943 3.5-3.899 3.899v-3.899zm5.289 11.069-3.836-3.069h3.648v-2h-4v1.719l-1.574-1.259c-.501-.401-1.036-.756-1.595-1.063 2.159-.96 3.741-2.98 4.089-5.396h20.16c.441 3.059 2.861 5.479 5.92 5.92v2.16c-3.059.441-5.479 2.861-5.92 5.92h-15.159c-.202-1.148-.804-2.188-1.733-2.932z"/><path d="m32 40c2.757 0 5-2.243 5-5s-2.243-5-5-5-5 2.243-5 5 2.243 5 5 5zm0-8c1.654 0 3 1.346 3 3s-1.346 3-3 3-3-1.346-3-3 1.346-3 3-3z"/><path d="m39 34h4v2h-4z"/><path d="m39 11h-4v-2c0-.347-.18-.668-.475-.851s-.663-.199-.973-.044l-12 6c-.338.17-.552.516-.552.895s.214.725.553.895l12 6c.311.154.679.138.973-.044.294-.183.474-.504.474-.851v-2h4c8.822 0 16 7.178 16 16 0 .552.447 1 1 1h6c.553 0 1-.448 1-1 0-13.233-10.767-24-24-24zm17.973 23c-.521-9.462-8.383-17-17.973-17h-5c-.553 0-1 .448-1 1v1.382l-8.764-4.382 8.764-4.382v1.382c0 .552.447 1 1 1h5c11.796 0 21.452 9.332 21.978 21z"/></g></svg>